<svg xmlns="http://www.w3.org/2000/svg" xmlns:xlink="http://www.w3.org/1999/xlink" width="500" zoomAndPan="magnify" viewBox="0 0 375 374.999991" height="500" preserveAspectRatio="xMidYMid meet" version="1.0"><defs><clipPath id="482bbd8de8"><path d="M 3.308594 3.308594 L 370.808594 3.308594 L 370.808594 370.808594 L 3.308594 370.808594 Z M 3.308594 3.308594 " clip-rule="nonzero"/></clipPath></defs><g clip-path="url(#482bbd8de8)"><path fill="#1a2a73" d="M 187.128906 370.949219 C 85.773438 370.949219 3.308594 288.484375 3.308594 187.128906 C 3.308594 85.773438 85.773438 3.308594 187.128906 3.308594 C 288.484375 3.308594 370.949219 85.773438 370.949219 187.128906 C 370.949219 288.484375 288.484375 370.949219 187.128906 370.949219 Z M 187.128906 29.960938 C 100.445312 29.960938 29.941406 100.445312 29.941406 187.128906 C 29.941406 273.789062 100.445312 344.296875 187.128906 344.296875 C 273.789062 344.296875 344.320312 273.789062 344.320312 187.128906 C 344.320312 100.445312 273.789062 29.960938 187.128906 29.960938 Z M 187.128906 29.960938 " fill-opacity="1" fill-rule="nonzero"/></g><path fill="#1a2a73" d="M 190.921875 282.519531 C 189.507812 281.980469 187.980469 281.105469 187.980469 277.40625 C 187.980469 275.878906 188.21875 274.109375 188.761719 271.949219 L 211.980469 159.394531 C 212.496094 156.753906 212.761719 153.984375 212.761719 151.226562 C 212.761719 143.953125 210.519531 138.417969 206.097656 134.75 C 196.183594 126.605469 178.835938 128.203125 149.972656 137.957031 L 147.171875 138.898438 L 146.023438 153.421875 L 150.871094 153.421875 C 165.566406 153.421875 169.113281 154.570312 169.851562 154.925781 C 170.839844 155.398438 171.378906 155.960938 171.378906 157.613281 C 171.378906 158.535156 171.261719 159.566406 171.023438 160.714844 C 170.734375 162.246094 170.390625 164.015625 170.058594 165.921875 L 148.78125 269.296875 C 147.792969 274.5 147.273438 278.96875 147.273438 282.53125 C 147.273438 290.769531 149.652344 297.132812 154.292969 301.429688 C 158.84375 305.625 165.082031 307.761719 172.824219 307.761719 C 181.890625 307.761719 194.058594 305.246094 210.003906 300.085938 L 212.851562 299.167969 L 214 284.449219 L 209.1875 284.449219 C 198.285156 284.449219 193.253906 283.394531 190.921875 282.519531 Z M 190.921875 282.519531 " fill-opacity="1" fill-rule="nonzero"/><path fill="#1a2a73" d="M 221.480469 72.804688 C 217.101562 68.632812 211.472656 66.496094 204.765625 66.496094 C 197.8125 66.496094 191.929688 68.785156 187.300781 73.277344 C 182.636719 77.789062 180.257812 83.867188 180.257812 91.359375 C 180.257812 98.253906 182.523438 103.972656 186.96875 108.40625 C 191.414062 112.878906 197.113281 115.140625 203.867188 115.140625 C 210.761719 115.140625 216.585938 112.738281 221.238281 108.050781 C 225.859375 103.363281 228.191406 97.277344 228.191406 89.945312 C 228.191406 82.789062 225.949219 77.019531 221.480469 72.804688 Z M 221.480469 72.804688 " fill-opacity="1" fill-rule="nonzero"/></svg>